<svg xmlns="http://www.w3.org/2000/svg" width="1000" height="420" viewBox="0 0 1000 420" role="img" aria-label="The wrap as a flat sheet, then with the photo stack, then closed with one tab">
  <rect width="1000" height="420" fill="#efe4cd"/>
  <g transform="translate(28,78)">
    <text x="0" y="-28" fill="#c65345" font-family="IBM Plex Mono, ui-monospace, monospace" font-size="11" font-weight="600" letter-spacing="1.6">01</text>
    <text x="0" y="-10" fill="#26211d" font-family="Archivo, Helvetica, Arial, sans-serif" font-size="15" font-weight="700">Sheet</text>
    <g transform="translate(8,48)">
      <path fill="#f3ead8" stroke="#26211d" stroke-width="1.5" d="M84 43 H103 L112 0 H263 L272 43 H356 L371 58 V101 L356 116 H272 L263 159 H112 L103 116 H84 L68 101 V58 Z"/>
      <path fill="none" stroke="#c65345" stroke-width="1" stroke-dasharray="5 4" d="M112 43 H263 M120 19 H255 M112 116 H263 M120 140 H255 M84 43 V116 M103 48 V111 M272 43 V116 M356 58 V101"/>
      <rect x="92" y="64" width="6" height="31" rx="1" fill="#efe4cd" stroke="#26211d" stroke-width="1.2"/>
      <text x="187" y="86" text-anchor="middle" fill="#6d645c" font-family="IBM Plex Mono, ui-monospace, monospace" font-size="11">PHOTO BED</text>
      <text x="187" y="30" text-anchor="middle" fill="#6d645c" font-family="IBM Plex Mono, ui-monospace, monospace" font-size="11">RETAINER</text>
      <text x="187" y="152" text-anchor="middle" fill="#6d645c" font-family="IBM Plex Mono, ui-monospace, monospace" font-size="11">RETAINER</text>
    </g>
  </g>
  <g transform="translate(360,78)">
    <text x="0" y="-28" fill="#c65345" font-family="IBM Plex Mono, ui-monospace, monospace" font-size="11" font-weight="600" letter-spacing="1.6">02</text>
    <text x="0" y="-10" fill="#26211d" font-family="Archivo, Helvetica, Arial, sans-serif" font-size="15" font-weight="700">Stack</text>
    <g transform="translate(16,36)">
      <path fill="#f3ead8" stroke="#26211d" stroke-width="1.5" d="M0 48 H86 V172 H0 Z"/>
      <rect x="38" y="79" width="6" height="31" rx="1" fill="#efe4cd" stroke="#26211d" stroke-width="1.2"/>
      <path fill="#f3ead8" stroke="#26211d" stroke-width="1.5" d="M94 40 H246 V180 H94 Z"/>
      <rect x="108" y="56" width="118" height="88" fill="#7a9bb0" stroke="#26211d" stroke-width="1"/>
      <rect x="114" y="62" width="118" height="88" fill="#d7c3a5" stroke="#26211d" stroke-width="1"/>
      <rect x="120" y="68" width="118" height="88" fill="#4f6d55" stroke="#26211d" stroke-width="1"/>
      <rect x="126" y="74" width="118" height="88" fill="#c48b6a" stroke="#26211d" stroke-width="1"/>
      <rect x="126" y="142" width="118" height="12" fill="#fff8f2"/>
      <path fill="#f3ead8" stroke="#26211d" stroke-width="1.5" d="M112 20 H228 V40 H112 Z"/>
      <path fill="#f3ead8" stroke="#26211d" stroke-width="1.5" d="M112 180 H228 V200 H112 Z"/>
      <path fill="#f3ead8" stroke="#26211d" stroke-width="1.5" d="M254 40 H340 V180 H254 Z"/>
      <path fill="#f3ead8" stroke="#26211d" stroke-width="1.5" d="M340 78 H356 V142 H340 Z"/>
      <text x="170" y="214" text-anchor="middle" fill="#6d645c" font-family="IBM Plex Mono, ui-monospace, monospace" font-size="11">RETAINERS IN / TAB OPEN</text>
    </g>
  </g>
  <g transform="translate(708,78)">
    <text x="0" y="-28" fill="#c65345" font-family="IBM Plex Mono, ui-monospace, monospace" font-size="11" font-weight="600" letter-spacing="1.6">03</text>
    <text x="0" y="-10" fill="#26211d" font-family="Archivo, Helvetica, Arial, sans-serif" font-size="15" font-weight="700">Closed</text>
    <g transform="translate(22,44)">
      <path fill="#f3ead8" stroke="#26211d" stroke-width="1.5" d="M8 8 H188 L204 28 V156 L188 176 H8 Z"/>
      <rect x="20" y="20" width="156" height="136" fill="none" stroke="#c65345" stroke-width="1.4"/>
      <line x1="48" y1="58" x2="148" y2="58" stroke="#c65345" stroke-width="1"/>
      <text text-anchor="middle" x="98" y="52" fill="#c65345" font-family="IBM Plex Mono, ui-monospace, monospace" font-size="9" font-weight="600">PHOTO SET  /  08</text>
      <text text-anchor="middle" x="98" y="92" fill="#c65345" font-family="Archivo, Helvetica, Arial, sans-serif" font-size="22" font-weight="800">PHOTO</text>
      <text text-anchor="middle" x="98" y="116" fill="#c65345" font-family="Archivo, Helvetica, Arial, sans-serif" font-size="22" font-weight="800">PACKAGER</text>
      <line x1="48" y1="128" x2="148" y2="128" stroke="#c65345" stroke-width="1"/>
      <text text-anchor="middle" x="98" y="146" fill="#c65345" font-family="IBM Plex Mono, ui-monospace, monospace" font-size="8" font-weight="500">ONE WIDE TAB</text>
      <path fill="#f3ead8" stroke="#26211d" stroke-width="1.5" d="M188 28 H210 V156 H188"/>
      <text x="100" y="198" text-anchor="middle" fill="#6d645c" font-family="IBM Plex Mono, ui-monospace, monospace" font-size="11">COVER OUT / TAB LOCKED</text>
    </g>
  </g>
</svg>
